<svg xmlns="http://www.w3.org/2000/svg" width="36" height="36" viewBox="0 0 36 36" fill="none">
  <rect width="36" height="36" rx="8" fill="#E7E6F2"/>
  <path d="M18.4388 24.9799L14.3766 24.904C13.0613 24.8775 11.7428 24.9304 10.4533 24.6563C8.49177 24.2468 8.35281 22.2389 8.20739 20.5546C8.00703 18.1868 8.0846 15.776 8.46271 13.4279C8.67616 12.1104 9.51619 11.3242 10.8153 11.2386C15.2006 10.9282 19.6151 10.965 23.9908 11.1098C24.4529 11.1231 24.9182 11.1957 25.3739 11.2783C27.6232 11.6812 27.678 13.9566 27.8238 15.8721C27.9692 17.8073 27.9078 19.7524 27.6299 21.6745C27.4069 23.2659 26.9803 24.6004 25.1799 24.7293C22.9242 24.8977 20.7202 25.0333 18.4581 24.9902C18.4582 24.9799 18.4452 24.9799 18.4388 24.9799ZM16.0506 20.9509C17.7505 19.9535 19.418 18.9727 21.1081 17.982C19.4051 16.9846 17.7408 16.0038 16.0506 15.0131V20.9509Z" fill="#8D8BA7"/>
</svg>