<svg width="73" height="72" viewBox="0 0 73 72" fill="none" xmlns="http://www.w3.org/2000/svg">
<rect x="0.52832" width="72" height="72" rx="20" fill="#F47701"/>
<path d="M37.0006 52.0402L21.3763 35.7445C20.0031 34.3724 19.0968 32.6028 18.7858 30.6866C18.4749 28.7705 18.7752 26.8051 19.644 25.0692C20.2992 23.7592 21.2563 22.6237 22.4364 21.7561C23.6165 20.8885 24.9858 20.3138 26.4316 20.0792C27.8774 19.8447 29.3582 19.957 30.7521 20.4069C32.1459 20.8569 33.4129 21.6316 34.4487 22.6672L37.0006 25.2175L39.5525 22.6672C40.5882 21.6316 41.8552 20.8569 43.2491 20.4069C44.6429 19.957 46.1237 19.8447 47.5695 20.0792C49.0153 20.3138 50.3846 20.8885 51.5647 21.7561C52.7448 22.6237 53.7019 23.7592 54.3571 25.0692C55.2248 26.8044 55.5245 28.7687 55.2139 30.6837C54.9033 32.5988 53.9981 34.3676 52.6265 35.7396L37.0006 52.0402Z" fill="white"/>
</svg>
