<svg xmlns="http://www.w3.org/2000/svg" width="54" height="64" viewBox="0 0 54 64" fill="none">
  <path d="M49.523 41.2027C49.523 53.0853 39.5594 62.7173 27.2676 62.7173C26.6111 62.7173 25.9628 62.6907 25.3201 62.6347V19.7733C25.9628 19.7147 26.6111 19.688 27.2676 19.688C39.5594 19.688 49.523 29.32 49.523 41.2027Z" fill="#F47701"/>
  <path d="M49.523 41.1253V41.1867C49.523 41.84 49.4926 42.4853 49.432 43.1227L37.4381 44.9067L46.8086 51.488C46.4638 52.104 46.0859 52.7013 45.6777 53.2773L34.6851 50.216L39.7883 58.976C38.9884 59.504 38.1498 59.9813 37.2781 60.4053L29.8219 53.8427L30.3653 62.4933C29.353 62.632 28.3186 62.7013 27.2676 62.7013C27.0359 62.7013 26.8014 62.6987 26.5724 62.6907L25.3201 59.2347V26.2507L28.5751 19.7093C29.3364 19.752 30.0867 19.8293 30.8233 19.9467L29.7806 29.5227L39.038 22.9253C39.6807 23.312 40.2986 23.728 40.8945 24.1787L34.2465 33.7627L46.8362 30.9333C47.1507 31.4907 47.4403 32.064 47.6996 32.648L37.5374 38.9707L49.523 41.1253Z" fill="#FCB80A"/>
  <path d="M42.8944 10.5333V18.5333H25.2401V63.8667H16.9647V18.5333H0.137924V10.5333H16.9647V0.133333H25.2401V10.5333H42.8944Z" fill="white"/>
  <path d="M25.378 64H16.8267V18.6667H0V10.4H16.8267V0H25.378V10.4H43.0323V18.6667H25.378V64ZM17.1026 63.7333H25.1022V18.4H42.7564V10.6667H25.1022V0.266667H17.1026V10.6667H0.275848V18.4H17.1026V63.7333Z" fill="black"/>
  <path d="M12.1594 55.952V54.9973C12.1594 54.848 12.1677 54.7173 12.1814 54.608C12.1952 54.4987 12.2366 54.3973 12.3028 54.304C12.3663 54.2107 12.4545 54.1413 12.5676 54.0933C12.678 54.0453 12.7966 54.0213 12.918 54.0213C13.1607 54.0213 13.3538 54.096 13.5 54.2453C13.6462 54.3947 13.7179 54.6373 13.7179 54.968V55.616H14.7772V55.952H12.1594ZM13.4035 55.616V54.9653C13.4035 54.568 13.2435 54.368 12.9262 54.368C12.8214 54.368 12.7304 54.3947 12.6476 54.4453C12.5676 54.496 12.518 54.56 12.4987 54.6347C12.4794 54.7093 12.4683 54.8213 12.4683 54.9707V55.6133H13.4035V55.616Z" fill="black"/>
  <path d="M13.9083 52.1413V53.512C14.1179 53.4987 14.2779 53.4427 14.3882 53.3387C14.4986 53.2347 14.5537 53.1067 14.5537 52.952C14.5537 52.8347 14.5206 52.7333 14.4572 52.6533C14.391 52.5733 14.2944 52.512 14.1648 52.4693L14.2062 52.1493C14.4048 52.2 14.5565 52.296 14.6613 52.4347C14.7661 52.5733 14.8213 52.744 14.8213 52.952C14.8213 53.2267 14.733 53.4427 14.5593 53.5973C14.3855 53.752 14.1455 53.8293 13.8448 53.8293C13.5441 53.8293 13.3041 53.7547 13.1193 53.6053C12.9345 53.456 12.8407 53.2427 12.8407 52.9707C12.8407 52.8373 12.8711 52.7093 12.9318 52.584C12.9924 52.4613 13.0945 52.3547 13.2407 52.2693C13.3869 52.184 13.6103 52.1413 13.911 52.1413H13.9083ZM13.6462 52.4613C13.4531 52.4747 13.3152 52.5307 13.2297 52.6347C13.1442 52.7387 13.1028 52.8507 13.1028 52.9733C13.1028 53.12 13.1524 53.24 13.2545 53.3333C13.3566 53.4267 13.4862 53.4827 13.6462 53.496V52.4613Z" fill="black"/>
  <path d="M14.7744 51.4373V51.792H14.4075V51.4373H14.7744Z" fill="black"/>
  <path d="M14.4103 47.824C14.6834 48.1413 14.8213 48.4907 14.8213 48.8693C14.8213 49.248 14.6999 49.5707 14.4544 49.808C14.2089 50.0453 13.8834 50.1653 13.4779 50.1653C13.2297 50.1653 13.0007 50.1173 12.7856 50.0187C12.5732 49.9227 12.4076 49.7787 12.289 49.5893C12.1732 49.4 12.1125 49.168 12.1125 48.896C12.1125 48.624 12.1759 48.384 12.3056 48.2107C12.4352 48.0373 12.6283 47.9227 12.8876 47.864L12.9759 48.1653C12.7883 48.2133 12.6476 48.296 12.5511 48.4187C12.4573 48.5413 12.4104 48.7013 12.4104 48.896C12.4104 49.2 12.5069 49.432 12.7 49.5867C12.8931 49.7413 13.1442 49.8187 13.4559 49.8187C13.6903 49.8187 13.8834 49.7813 14.0379 49.7067C14.1924 49.632 14.3082 49.52 14.3882 49.3707C14.4682 49.224 14.5068 49.0613 14.5068 48.888C14.5068 48.624 14.4158 48.376 14.2365 48.1493H13.751V48.896H13.4393V47.8267H14.4075L14.4103 47.824Z" fill="black"/>
  <path d="M14.7744 45.9813V46.2587H14.4958V46.2667C14.711 46.408 14.8186 46.5973 14.8186 46.84C14.8186 46.968 14.7882 47.0853 14.7275 47.1947C14.6668 47.304 14.5813 47.376 14.4737 47.4107C14.3662 47.448 14.2255 47.464 14.0545 47.464H12.8793V47.152H13.9303C14.0986 47.152 14.2172 47.144 14.2917 47.128C14.3634 47.112 14.4241 47.072 14.471 47.0053C14.5179 46.9387 14.5427 46.8613 14.5427 46.7707C14.5427 46.6533 14.5013 46.544 14.4158 46.44C14.3331 46.336 14.1565 46.2853 13.8945 46.2853H12.8821V45.9733H14.7772L14.7744 45.9813Z" fill="black"/>
  <path d="M12.5235 45.2907V45.6H12.1594V45.2907H12.5235ZM14.7744 45.2907V45.6H12.8793V45.2907H14.7744Z" fill="black"/>
  <path d="M14.7744 44.608V44.9173H12.1566V44.608H14.7744Z" fill="black"/>
  <path d="M14.7744 42.7547V43.0453H14.5344V43.0533C14.7248 43.1653 14.8213 43.3333 14.8213 43.56C14.8213 43.7867 14.7303 43.9707 14.5455 44.1227C14.3606 44.2747 14.1234 44.3467 13.831 44.3467C13.5386 44.3467 13.2848 44.2747 13.1055 44.1333C12.929 43.992 12.8407 43.8053 12.8407 43.5733C12.8407 43.3547 12.9262 43.1893 13.1 43.0747V43.0667H12.1621V42.7573H14.7799L14.7744 42.7547ZM14.5565 43.5253C14.5565 43.3893 14.4986 43.2747 14.3827 43.1813C14.2669 43.088 14.0931 43.04 13.8586 43.04C13.6241 43.04 13.4448 43.0827 13.3069 43.1707C13.169 43.2587 13.1028 43.3813 13.1028 43.5413C13.1028 43.7013 13.169 43.824 13.3041 43.9067C13.4393 43.9893 13.6131 44.0293 13.831 44.0293C13.9883 44.0293 14.1207 44.008 14.231 43.9627C14.3413 43.9173 14.4213 43.856 14.4765 43.776C14.5317 43.696 14.5593 43.6133 14.5593 43.5253H14.5565Z" fill="black"/>
  <path d="M12.838 41.6293C12.838 41.3813 12.9207 41.176 13.089 41.0133C13.2545 40.8507 13.4917 40.768 13.8007 40.768C14.1731 40.768 14.4351 40.856 14.5896 41.032C14.7441 41.208 14.8213 41.4053 14.8213 41.6267C14.8213 41.848 14.7413 42.0587 14.5841 42.2293C14.4269 42.4 14.1758 42.4853 13.831 42.4853C13.4862 42.4853 13.249 42.4027 13.0862 42.2373C12.9235 42.072 12.8407 41.8693 12.8407 41.6267L12.838 41.6293ZM14.5565 41.6293C14.5565 41.4533 14.4875 41.3173 14.3524 41.2267C14.2172 41.136 14.0379 41.088 13.8172 41.088C13.58 41.088 13.4007 41.1413 13.2821 41.2453C13.1607 41.3493 13.1028 41.4773 13.1028 41.632C13.1028 41.7867 13.1635 41.92 13.2848 42.0213C13.4062 42.1227 13.5883 42.1733 13.831 42.1733C14.0738 42.1733 14.2531 42.1227 14.3744 42.0187C14.4958 41.9147 14.5565 41.7867 14.5565 41.632V41.6293Z" fill="black"/>
  <path d="M12.4683 37.8507V38.688H14.7744V39.024H12.4683V39.8533H12.1566V37.8507H12.4683Z" fill="black"/>
  <path d="M12.838 37.2853C12.838 37.0373 12.9207 36.832 13.089 36.6693C13.2545 36.5067 13.4917 36.424 13.8007 36.424C14.1731 36.424 14.4351 36.512 14.5896 36.688C14.7441 36.864 14.8213 37.0613 14.8213 37.2827C14.8213 37.504 14.7413 37.7147 14.5841 37.8853C14.4269 38.056 14.1758 38.1413 13.831 38.1413C13.4862 38.1413 13.249 38.0587 13.0862 37.8933C12.9235 37.728 12.8407 37.5253 12.8407 37.2827L12.838 37.2853ZM14.5565 37.2853C14.5565 37.1093 14.4875 36.9733 14.3524 36.8827C14.2172 36.792 14.0379 36.744 13.8172 36.744C13.58 36.744 13.4007 36.7973 13.2821 36.9013C13.1607 37.0053 13.1028 37.1333 13.1028 37.288C13.1028 37.4427 13.1635 37.576 13.2848 37.6773C13.4062 37.7787 13.5883 37.8293 13.831 37.8293C14.0738 37.8293 14.2531 37.7787 14.3744 37.6747C14.4958 37.5707 14.5565 37.4427 14.5565 37.288V37.2853Z" fill="black"/>
  <path d="M14.7744 34.672V34.984H13.6241C13.431 34.984 13.2959 35.0187 13.2242 35.0853C13.1524 35.152 13.1138 35.2453 13.1138 35.3653C13.1138 35.4587 13.1359 35.544 13.1828 35.6267C13.2297 35.7093 13.2959 35.768 13.3786 35.8027C13.4614 35.8373 13.5828 35.8533 13.7372 35.8533H14.7717V36.1653H12.8766V35.8853H13.1442V35.8773C13.0393 35.8107 12.9621 35.7307 12.9124 35.6347C12.86 35.5387 12.8352 35.4267 12.8352 35.3013C12.8352 35.2053 12.8518 35.1093 12.8876 35.016C12.9235 34.9227 12.9759 34.848 13.0476 34.7947C13.1193 34.7413 13.1966 34.7067 13.2766 34.6933C13.3566 34.68 13.4669 34.672 13.6048 34.672H14.7744Z" fill="black"/>
  <path d="M13.9083 32.7147V34.0853C14.1179 34.072 14.2779 34.016 14.3882 33.912C14.4986 33.808 14.5537 33.68 14.5537 33.5253C14.5537 33.408 14.5206 33.3067 14.4572 33.2267C14.391 33.1467 14.2944 33.0853 14.1648 33.0427L14.2062 32.7227C14.4048 32.7733 14.5565 32.8693 14.6613 33.008C14.7661 33.1467 14.8213 33.3173 14.8213 33.5253C14.8213 33.8 14.733 34.016 14.5593 34.1707C14.3855 34.3253 14.1455 34.4027 13.8448 34.4027C13.5441 34.4027 13.3041 34.328 13.1193 34.1787C12.9345 34.0293 12.8407 33.816 12.8407 33.544C12.8407 33.4107 12.8711 33.2827 12.9318 33.1573C12.9924 33.0347 13.0945 32.928 13.2407 32.8427C13.3869 32.7573 13.6103 32.7147 13.911 32.7147H13.9083ZM13.6462 33.032C13.4531 33.0453 13.3152 33.1013 13.2297 33.2053C13.1442 33.3093 13.1028 33.4213 13.1028 33.544C13.1028 33.6907 13.1524 33.8107 13.2545 33.904C13.3566 33.9973 13.4862 34.0533 13.6462 34.0667V33.032Z" fill="black"/>
  <path d="M14.7744 32.1307V32.44H12.1566V32.1307H14.7744Z" fill="black"/>
  <path d="M12.838 31.0133C12.838 30.7653 12.9207 30.56 13.089 30.3973C13.2545 30.2347 13.4917 30.152 13.8007 30.152C14.1731 30.152 14.4351 30.24 14.5896 30.416C14.7441 30.592 14.8213 30.7893 14.8213 31.0107C14.8213 31.232 14.7413 31.4427 14.5841 31.6133C14.4269 31.784 14.1758 31.8693 13.831 31.8693C13.4862 31.8693 13.249 31.7867 13.0862 31.6213C12.9235 31.456 12.8407 31.2533 12.8407 31.0107L12.838 31.0133ZM14.5565 31.0133C14.5565 30.8373 14.4875 30.7013 14.3524 30.6107C14.2172 30.52 14.0379 30.472 13.8172 30.472C13.58 30.472 13.4007 30.5253 13.2821 30.6293C13.1607 30.7333 13.1028 30.8613 13.1028 31.016C13.1028 31.1707 13.1635 31.304 13.2848 31.4053C13.4062 31.5067 13.5883 31.5573 13.831 31.5573C14.0738 31.5573 14.2531 31.5067 14.3744 31.4027C14.4958 31.2987 14.5565 31.1707 14.5565 31.016V31.0133Z" fill="black"/>
  <path d="M14.7717 29.1813C14.791 29.2747 14.7992 29.352 14.7992 29.4133C14.7992 29.5493 14.7744 29.648 14.7248 29.7093C14.6751 29.7707 14.6117 29.8107 14.5372 29.824C14.46 29.8373 14.3551 29.8453 14.22 29.8453H13.1304V30.072H12.8821V29.8453H12.4104L12.2145 29.536H12.8793V29.224H13.1276V29.536H14.2365C14.3331 29.536 14.3993 29.5253 14.4379 29.5067C14.4765 29.488 14.4986 29.44 14.4986 29.3627C14.4986 29.3173 14.4931 29.272 14.4848 29.224L14.7717 29.1813Z" fill="black"/>
  <path d="M14.7717 28.3013C14.791 28.3947 14.7992 28.472 14.7992 28.5333C14.7992 28.6693 14.7744 28.768 14.7248 28.8293C14.6751 28.8907 14.6117 28.9307 14.5372 28.944C14.46 28.9573 14.3551 28.9653 14.22 28.9653H13.1304V29.192H12.8821V28.9653H12.4104L12.2145 28.656H12.8793V28.344H13.1276V28.656H14.2365C14.3331 28.656 14.3993 28.6453 14.4379 28.6267C14.4765 28.608 14.4986 28.56 14.4986 28.4827C14.4986 28.4373 14.4931 28.392 14.4848 28.344L14.7717 28.3013Z" fill="black"/>
  <path d="M12.838 27.392C12.838 27.144 12.9207 26.9387 13.089 26.776C13.2545 26.6133 13.4917 26.5307 13.8007 26.5307C14.1731 26.5307 14.4351 26.6187 14.5896 26.7947C14.7441 26.9707 14.8213 27.168 14.8213 27.3893C14.8213 27.6107 14.7413 27.8213 14.5841 27.992C14.4269 28.1627 14.1758 28.248 13.831 28.248C13.4862 28.248 13.249 28.1653 13.0862 28C12.9235 27.8347 12.8407 27.632 12.8407 27.3893L12.838 27.392ZM14.5565 27.392C14.5565 27.216 14.4875 27.08 14.3524 26.9893C14.2172 26.8987 14.0379 26.8507 13.8172 26.8507C13.58 26.8507 13.4007 26.904 13.2821 27.008C13.1607 27.112 13.1028 27.24 13.1028 27.3947C13.1028 27.5493 13.1635 27.6827 13.2848 27.784C13.4062 27.8853 13.5883 27.936 13.831 27.936C14.0738 27.936 14.2531 27.8853 14.3744 27.7813C14.4958 27.6773 14.5565 27.5493 14.5565 27.3947V27.392Z" fill="black"/>
  <path d="M25.3201 36.944V46.632L27.3586 47.856L29.753 49.3307L30.6219 49.7387L31.4522 49.968L32.6963 50.0747L34.0093 49.968L35.5651 49.3707L37.8767 47.6853L42.8613 43.7013L45.3853 41.4613L46.93 39.7813L47.6196 38.7547V38.488L47.01 37.9013L46.5107 37.696L45.9645 37.6213L45.3108 37.664L44.2377 37.872L41.8627 38.5147L40.66 38.8587L39.027 39.384L37.4215 39.9387L35.9126 40.432L34.7348 40.7573L33.75 40.8293L32.8038 40.6747L31.6977 40.2L30.655 39.6187L28.5751 38.552L27.2483 37.8853L25.3201 36.944Z" fill="white"/>
  <path d="M32.7018 50.208C32.0149 50.208 31.2453 50.1227 30.5722 49.864C29.7806 49.5573 28.964 49.0347 28.1751 48.528C27.8662 48.3307 27.5682 48.1387 27.2869 47.9707C25.6373 46.9867 24.2939 46.168 24.2801 46.16L24.4263 45.9333C24.4263 45.9333 25.7808 46.76 27.4303 47.744C27.7144 47.912 28.0151 48.1067 28.3268 48.3067C29.1047 48.8053 29.9074 49.3227 30.6743 49.6187C31.8687 50.08 33.3997 49.96 34.1169 49.816C35.2203 49.5947 36.2078 48.8053 36.9305 48.2267C37.1457 48.056 37.3305 47.9067 37.4933 47.7947C38.9773 46.7653 42.4944 43.904 44.5936 42.0187C46.5466 40.2613 47.3521 39.0293 47.4955 38.704C47.5893 38.4933 47.2693 38.288 47.2666 38.2853L47.2307 38.2533C47.2169 38.2347 46.8473 37.776 45.9646 37.7547C45.1674 37.7307 43.9702 38.0747 43.3964 38.2347C43.2916 38.264 43.2088 38.288 43.1537 38.3013C42.4282 38.4853 40.7207 38.9813 40.1607 39.144C39.9152 39.216 39.449 39.3787 38.8587 39.584C37.7801 39.9627 36.3016 40.48 35.0879 40.8107C33.1238 41.3467 31.6122 40.3147 31.4467 40.1947C31.2315 40.04 27.1352 37.9627 26.9724 37.9013C26.7186 37.8053 24.2332 36.5707 23.8388 36.272C23.5657 36.064 23.0747 36.0027 22.5561 35.9387C22.4071 35.92 22.2554 35.9013 22.1065 35.8773C21.4748 35.776 19.748 36.28 19.5052 36.3813C19.2487 36.488 17.4308 36.712 17.2239 36.736L17.1908 36.472C17.9549 36.3787 19.2321 36.2053 19.3976 36.136C19.668 36.024 21.4444 35.504 22.1506 35.6133C22.2968 35.6347 22.4458 35.656 22.592 35.672C23.1492 35.7413 23.676 35.808 24.0098 36.0613C24.3767 36.3413 26.8759 37.5787 27.0745 37.6533C27.2565 37.7227 31.375 39.808 31.6149 39.9813C31.7694 40.0933 33.179 41.0587 35.0161 40.5547C36.2188 40.2267 37.6919 39.7093 38.7677 39.3333C39.3635 39.1253 39.8325 38.96 40.0835 38.888C40.6462 38.7253 42.3565 38.2293 43.0847 38.0427C43.1371 38.0293 43.2171 38.0053 43.3192 37.9787C43.9067 37.8133 45.137 37.4693 45.9701 37.488C46.8969 37.5093 47.3438 37.9707 47.4348 38.0747C47.6279 38.2027 47.8927 38.488 47.7493 38.808C47.5617 39.232 46.7011 40.488 44.7812 42.2107C42.853 43.944 39.3194 46.856 37.6533 48.008C37.4988 48.1147 37.3167 48.2613 37.1071 48.4293C36.3623 49.024 35.3444 49.8373 34.1748 50.072C33.8272 50.1413 33.2976 50.2053 32.7045 50.2053L32.7018 50.208Z" fill="black"/>
  <path d="M33.088 48.2373H33.0549L33.0245 48.224L23.7753 43.6853L23.8995 43.448L33.1073 47.9653C33.168 47.9333 33.2893 47.792 33.3031 47.376C33.3252 46.6613 33.3031 45.1947 33.3031 45.1813V45.1627L33.3086 45.144C33.3114 45.1333 33.3831 44.8133 32.8921 44.4693C32.7763 44.3893 32.6328 44.2853 32.4646 44.168C31.7722 43.6747 30.7239 42.9253 29.8992 42.4773C29.6012 42.3147 29.2978 42.16 28.9999 42.0107C28.2606 41.6347 27.5627 41.28 27.1462 40.896C26.8069 40.5813 26.5614 40.1867 26.349 39.84C26.2 39.6 26.0732 39.3947 25.9463 39.2667C25.8663 39.1867 25.767 39.0693 25.6511 38.9333C25.298 38.52 24.7684 37.8933 24.2691 37.7467C24.2415 37.7387 24.2001 37.7253 24.1422 37.7067C23.8167 37.6027 23.0554 37.36 22.3933 37.3013C21.6872 37.24 21.0941 37.424 21.0858 37.4267L21.0003 37.1733C21.0251 37.1653 21.6513 36.9707 22.4182 37.0347C23.1133 37.0933 23.894 37.344 24.2277 37.4533C24.2801 37.4693 24.3215 37.4827 24.3463 37.4907C24.9256 37.6587 25.4663 38.296 25.8635 38.7627C25.9738 38.8933 26.0704 39.0053 26.1449 39.08C26.2938 39.2293 26.429 39.448 26.5862 39.7013C26.7931 40.0347 27.0248 40.4107 27.3393 40.7013C27.7255 41.0587 28.4068 41.4053 29.1295 41.7733C29.4275 41.9253 29.7364 42.08 30.0343 42.2453C30.8729 42.704 31.9294 43.456 32.6273 43.9547C32.7928 44.072 32.9362 44.176 33.0521 44.256C33.6369 44.664 33.5983 45.0907 33.579 45.1947C33.579 45.352 33.601 46.704 33.579 47.3867C33.5514 48.2187 33.1376 48.2427 33.088 48.2427V48.2373Z" fill="black"/>
  <path d="M33.921 46.1733L33.8962 45.9067L34.5775 45.8453C35.2423 45.792 35.8713 45.5547 36.3954 45.16L36.7099 44.9147L42.4613 40.488L44.9053 38.6933C44.9053 38.6933 45.297 38.3787 45.7053 38.4213C45.8983 38.44 46.0639 38.5333 46.1935 38.696C46.1935 38.696 46.4749 38.952 46.5521 39.2373C46.6238 39.4987 46.6431 39.5867 46.6431 39.5867L46.3728 39.64C46.3728 39.64 46.3535 39.552 46.2873 39.3067C46.2294 39.0933 45.9949 38.8773 45.9921 38.8773C45.8928 38.7573 45.7963 38.7013 45.6777 38.6907C45.3853 38.6587 45.0791 38.904 45.0763 38.9067L42.6295 40.704L36.5664 45.3733C35.9954 45.8027 35.3168 46.0587 34.5996 46.1173L33.9183 46.1787L33.921 46.1733Z" fill="black"/>
  <path d="M33.4521 32.424C34.2169 32.424 34.8368 31.8247 34.8368 31.0853C34.8368 30.346 34.2169 29.7467 33.4521 29.7467C32.6873 29.7467 32.0673 30.346 32.0673 31.0853C32.0673 31.8247 32.6873 32.424 33.4521 32.424Z" fill="black"/>
  <path d="M28.6468 36.7493C29.276 36.7493 29.7861 36.2562 29.7861 35.648C29.7861 35.0397 29.276 34.5467 28.6468 34.5467C28.0176 34.5467 27.5076 35.0397 27.5076 35.648C27.5076 36.2562 28.0176 36.7493 28.6468 36.7493Z" fill="black"/>
  <path d="M38.3842 35.2107C39.2389 35.2107 39.9318 34.5409 39.9318 33.7147C39.9318 32.8885 39.2389 32.2187 38.3842 32.2187C37.5296 32.2187 36.8367 32.8885 36.8367 33.7147C36.8367 34.5409 37.5296 35.2107 38.3842 35.2107Z" fill="black"/>
  <path d="M40.3676 34.7173C40.3676 34.7173 40.376 34.7228 40.3816 34.7255C40.376 34.7255 40.3732 34.7255 40.3676 34.7201V34.7173Z" fill="black"/>
  <path d="M41.9289 33.4987C42.0613 33.464 42.1772 33.592 42.1247 33.7147C41.9206 34.2053 41.4241 34.5467 40.8448 34.5467C40.7317 34.5467 40.6241 34.5333 40.5193 34.5067C40.5055 34.5067 40.4945 34.504 40.4807 34.4987C40.4476 34.4907 40.4172 34.48 40.3841 34.4693H40.3814C40.3814 34.4693 40.3731 34.4693 40.3676 34.4613C40.1166 34.352 39.9593 34.0853 40.0228 33.792C40.0669 33.5893 40.2324 33.424 40.4338 33.36C40.6352 33.296 40.7703 33.336 40.9083 33.3973C41.06 33.464 41.322 33.5467 41.5537 33.5467C41.6834 33.5467 41.8103 33.5307 41.9289 33.496V33.4987Z" fill="black"/>
  <path d="M31.4081 36.256C31.4081 36.2773 31.4081 36.296 31.4081 36.3173V36.256Z" fill="black"/>
  <path d="M33.6176 39.512C33.5624 39.5173 33.5073 39.5173 33.4521 39.5173C33.4079 39.5173 33.3638 39.5173 33.3197 39.512H33.6176Z" fill="black"/>
  <path d="M35.4989 36.256V36.3173C35.4989 36.296 35.4989 36.2773 35.4961 36.256H35.4989Z" fill="black"/>
  <path d="M35.5017 37.8377H35.4989V37.8187C35.4989 37.8187 35.5017 37.8323 35.5017 37.8377Z" fill="black"/>
  <path d="M31.6536 39.0133C31.648 39.096 31.6453 39.184 31.6453 39.2693V39.008C31.6453 39.008 31.6508 39.0107 31.6536 39.0133Z" fill="black"/>
  <path d="M33.6176 39.512C33.5624 39.5173 33.5073 39.5173 33.4521 39.5173C33.4079 39.5173 33.3638 39.5173 33.3197 39.512H33.6176Z" fill="black"/>
  <path d="M35.2258 39.0293V39.352C35.2258 39.3253 35.2258 39.2987 35.223 39.2693C35.223 39.1893 35.2203 39.112 35.2175 39.0347C35.2203 39.032 35.223 39.032 35.2258 39.0293Z" fill="black"/>
  <path d="M31.4081 36.256C31.4081 36.2773 31.4081 36.296 31.4081 36.3173V36.256Z" fill="black"/>
  <path d="M35.4989 36.256V36.3173C35.4989 36.296 35.4989 36.2773 35.4961 36.256H35.4989Z" fill="black"/>
  <path d="M30.0812 36.1867C30.0785 36.2107 30.0785 36.232 30.0785 36.256V36.1867H30.0812Z" fill="black"/>
  <path d="M31.6536 39.0133C31.648 39.096 31.6453 39.184 31.6453 39.2693V39.008C31.6453 39.008 31.6508 39.0107 31.6536 39.0133Z" fill="black"/>
  <path d="M35.2258 39.0293V39.352C35.2258 39.3253 35.2258 39.2987 35.223 39.2693C35.223 39.1893 35.2203 39.112 35.2175 39.0347C35.2203 39.032 35.223 39.032 35.2258 39.0293Z" fill="black"/>
  <path d="M35.4989 37.6853V37.8187C35.4961 37.7973 35.4961 37.7733 35.4961 37.752C35.4961 37.7307 35.4961 37.7067 35.4989 37.6853Z" fill="black"/>
  <path d="M36.8257 37.752C36.8257 37.7787 36.8202 37.8053 36.8174 37.832V37.6533C36.8229 37.6853 36.8257 37.7173 36.8257 37.752Z" fill="black"/>
  <path d="M36.8257 36.256C36.8257 36.3307 36.8229 36.4053 36.8174 36.48V37.8373C36.7733 38.152 36.4974 38.3947 36.1609 38.3947C36.1085 38.3947 36.0588 38.3893 36.012 38.376C35.7444 38.3173 35.5375 38.1044 35.5017 37.8377C35.5017 37.8324 35.4989 37.824 35.4989 37.8187V36.256H35.4961C35.4851 35.92 35.3885 35.656 35.2258 35.3813V39.0293C35.2258 39.0293 35.2203 39.032 35.2175 39.0347C35.2203 39.112 35.223 39.1893 35.223 39.2693C35.2258 39.2987 35.2258 39.3253 35.2258 39.352V44.568C35.2258 44.9973 34.8644 45.344 34.4203 45.344C33.9762 45.344 33.6176 44.9973 33.6176 44.568V39.512H33.3197C33.2976 39.512 33.2755 39.512 33.2535 39.5093V44.568C33.2535 44.9973 32.8921 45.344 32.448 45.344C32.0039 45.344 31.6453 44.9973 31.6453 44.568V39.2693C31.6453 39.184 31.6453 39.096 31.6536 39.0133C31.6508 39.0107 31.648 39.0107 31.6453 39.008V35.392C31.5018 35.6507 31.4191 35.944 31.4081 36.256V37.792C31.397 38.0827 31.1874 38.3227 30.906 38.392C30.8812 38.3973 30.8564 38.4027 30.8288 38.4053C30.8012 38.4053 30.7736 38.4107 30.746 38.4107C30.3874 38.4107 30.095 38.136 30.0812 37.792V36.256C30.0812 36.232 30.0812 36.2107 30.084 36.1867C30.1198 34.4187 31.6177 32.9947 33.4548 32.9947C35.292 32.9947 36.8285 34.456 36.8285 36.256H36.8257Z" fill="black"/>
  <path d="M30.826 38.4053C30.7984 38.4053 30.7708 38.4107 30.7433 38.4107C30.3847 38.4107 30.0923 38.136 30.0785 37.792V37.5813C30.4067 37.792 30.666 38.0773 30.826 38.4053Z" fill="black"/>
  <path d="M35.5017 37.8377L35.4961 37.8373V36.256H35.4989V37.8187C35.4989 37.8187 35.5017 37.8323 35.5017 37.8377Z" fill="black"/>
  <path d="M31.662 40.3738L31.6453 40.3847V40.352L31.662 40.3738Z" fill="black"/>
  <path d="M31.5598 40.376C31.5598 40.4 31.557 40.424 31.5543 40.4453C31.5184 40.6613 31.3225 40.8267 31.0881 40.8267C31.0577 40.8267 31.0274 40.824 30.997 40.8187C30.8922 40.8 30.8012 40.7467 30.735 40.6747C30.7267 40.6693 30.7212 40.6613 30.7212 40.656L30.6853 40.6107C30.6853 40.6107 30.6826 40.6107 30.6826 40.608L30.0702 39.7973L29.8799 39.5467V40.864C29.8799 40.864 29.8771 40.8667 29.8743 40.8667C29.8771 40.9147 29.8771 40.9627 29.8771 41.0107C29.8799 41.0293 29.8799 41.0453 29.8799 41.0613V44.2613C29.8799 44.5253 29.6261 44.7387 29.3171 44.7387C29.0082 44.7387 28.7544 44.5253 28.7544 44.2613V41.16H28.5475C28.531 41.16 28.5172 41.16 28.5006 41.1573V44.2613C28.5006 44.5253 28.2468 44.7387 27.9379 44.7387C27.6289 44.7387 27.3752 44.5253 27.3752 44.2613V41.0107C27.3752 40.96 27.3779 40.904 27.3807 40.8533C27.3807 40.8533 27.3779 40.8533 27.3752 40.8507V39.5227L26.6359 40.472L26.5338 40.6027C26.5173 40.632 26.4952 40.6587 26.4704 40.6827C26.3987 40.752 26.3049 40.7973 26.1973 40.8107C26.178 40.8133 26.1587 40.816 26.1366 40.816C26.0345 40.816 25.9435 40.7867 25.8663 40.7333C25.7725 40.6693 25.7035 40.5733 25.6759 40.4587C25.6677 40.4267 25.6649 40.3947 25.6649 40.36C25.6649 40.2773 25.687 40.2027 25.7256 40.136L25.7863 40.056C25.7863 40.056 25.7973 40.0427 25.8028 40.0373L25.8663 39.9493L27.8744 37.272C27.9517 37.248 28.0317 37.2293 28.1144 37.2133C28.2827 37.1787 28.4592 37.1627 28.6385 37.1627C28.8178 37.1627 28.9971 37.1813 29.1682 37.216C29.2454 37.2293 29.3199 37.2453 29.3944 37.2693L31.466 40.1067C31.466 40.1067 31.4798 40.1253 31.4853 40.1333C31.5322 40.2027 31.5598 40.2853 31.5598 40.376Z" fill="black"/>
  <path d="M42.1523 39.952C42.1523 39.9813 42.1496 40.0133 42.1468 40.04C42.0999 40.3173 41.8489 40.528 41.551 40.528C41.5096 40.528 41.471 40.5253 41.4324 40.5173C41.3 40.4933 41.1813 40.4267 41.0986 40.3333C41.0876 40.3253 41.0793 40.3173 41.0793 40.3093L41.0351 40.2507C41.0351 40.2507 41.0296 40.2507 41.0296 40.248L40.8972 40.0693L40.0035 38.8907V39.4853L40.5276 41.4267C40.5607 41.552 40.4614 41.6747 40.3262 41.6747H40.0035V44.9227C40.0035 45.2587 39.678 45.5333 39.2835 45.5333C38.889 45.5333 38.5635 45.2587 38.5635 44.9227V41.6747H38.238V44.9227C38.238 45.2587 37.9153 45.5333 37.5181 45.5333C37.1209 45.5333 36.7981 45.2587 36.7981 44.9227V41.6747H36.4616C36.3264 41.6747 36.2299 41.5493 36.263 41.424L36.7981 39.5093V38.8587L35.8547 40.0747L35.7223 40.24C35.703 40.2773 35.6727 40.312 35.6423 40.344C35.5513 40.432 35.4299 40.4907 35.292 40.5067C35.2672 40.5093 35.2423 40.5147 35.2148 40.5147C35.0851 40.5147 34.9665 40.4773 34.8699 40.408C34.7486 40.3253 34.6603 40.2027 34.6244 40.056C34.6162 40.016 34.6106 39.976 34.6106 39.9307C34.6106 39.824 34.6382 39.7307 34.6879 39.6453L34.7679 39.5413C34.7679 39.5413 34.7817 39.5253 34.7872 39.5173L34.8699 39.4053L37.4381 35.9787C37.5374 35.9493 37.6395 35.9253 37.7443 35.904C37.9594 35.8613 38.1856 35.84 38.4146 35.84C38.6435 35.84 38.8753 35.864 39.0932 35.9093C39.1925 35.9253 39.2863 35.9467 39.3828 35.976L41.4296 38.7813L42.0337 39.6053C42.0337 39.6053 42.0503 39.6293 42.0585 39.64C42.1165 39.7307 42.1523 39.8347 42.1523 39.952Z" fill="black"/>
  <path d="M43.8984 20.336L44.9798 21.2453C45.2142 21.4427 45.3467 21.6507 45.3715 21.8667C45.3991 22.0827 45.3273 22.296 45.1618 22.512C44.9908 22.7333 44.7922 22.8533 44.5688 22.8693C44.3453 22.8853 44.0998 22.784 43.8378 22.5627L43.4819 22.264L42.8502 23.0773L42.1965 22.528L43.8957 20.336H43.8984ZM43.8267 21.8187L43.9867 21.952C44.1109 22.0587 44.2184 22.1093 44.3039 22.1067C44.3895 22.1067 44.4612 22.0667 44.5163 21.9973C44.5688 21.928 44.5936 21.8507 44.5853 21.7653C44.5798 21.68 44.5136 21.5867 44.3922 21.4853L44.2074 21.3307L43.8267 21.8187Z" fill="#0AA550"/>
  <path d="M44.2543 24.2907L46.2018 22.336L47.1672 23.3813C47.3465 23.576 47.4679 23.7387 47.5314 23.8747C47.5948 24.008 47.6114 24.152 47.5838 24.3013C47.5562 24.4507 47.479 24.5893 47.3548 24.712C47.2472 24.8213 47.1314 24.8907 47.0073 24.92C46.8859 24.952 46.759 24.9493 46.6349 24.912C46.5549 24.8907 46.4611 24.8427 46.3535 24.768C46.3976 24.8667 46.4252 24.944 46.4335 25.0027C46.439 25.0427 46.4335 25.1093 46.4225 25.2053C46.4114 25.3013 46.3976 25.3707 46.3838 25.416L46.0997 26.2853L45.446 25.576L45.7328 24.6427C45.7715 24.5227 45.7852 24.4347 45.777 24.3787C45.7659 24.304 45.7328 24.2373 45.6804 24.1787L45.628 24.1227L44.8363 24.9147L44.2543 24.2853V24.2907ZM45.9949 23.7573L46.2404 24.0213C46.268 24.0507 46.3259 24.096 46.4197 24.16C46.4666 24.192 46.519 24.2053 46.5742 24.2C46.6321 24.1947 46.6818 24.168 46.7231 24.1253C46.7866 24.0613 46.8142 23.992 46.8114 23.9173C46.8086 23.8427 46.7507 23.7467 46.6459 23.632L46.3921 23.3573L45.9949 23.7547V23.7573Z" fill="#0AA550"/>
  <path d="M47.1948 25.472C47.5507 25.2 47.901 25.0907 48.2431 25.144C48.5879 25.1973 48.8885 25.4107 49.1506 25.7787C49.4182 26.1573 49.5257 26.5227 49.4761 26.8747C49.4264 27.2293 49.2251 27.5387 48.8747 27.808C48.621 28.0027 48.381 28.1173 48.1548 28.1547C47.9286 28.1893 47.7107 28.1573 47.501 28.0587C47.2914 27.96 47.0983 27.784 46.919 27.5333C46.7369 27.2773 46.6266 27.0347 46.588 26.808C46.5466 26.5813 46.5742 26.3493 46.6707 26.1147C46.7673 25.88 46.9411 25.6667 47.1948 25.4693V25.472ZM47.6858 26.176C47.4652 26.344 47.3383 26.5093 47.3024 26.6667C47.2666 26.8267 47.3024 26.9787 47.4045 27.1253C47.5121 27.2773 47.6417 27.3573 47.7934 27.368C47.9451 27.3787 48.1438 27.2907 48.3865 27.104C48.5906 26.9467 48.712 26.7893 48.7451 26.6293C48.7782 26.4693 48.7451 26.3173 48.6403 26.1707C48.541 26.0293 48.4113 25.952 48.2568 25.9413C48.0996 25.9307 47.912 26.008 47.6886 26.1787L47.6858 26.176Z" fill="#0AA550"/>
  <path d="M50.8526 28.6373L51.2608 29.4L49.9781 30.1467C49.7078 30.304 49.4899 30.4 49.3244 30.432C49.1561 30.464 48.9851 30.432 48.8058 30.3413C48.6265 30.248 48.4748 30.0827 48.3479 29.848C48.2155 29.6 48.1437 29.3893 48.1355 29.216C48.1272 29.0427 48.1631 28.8827 48.2486 28.736C48.3313 28.5893 48.461 28.456 48.6375 28.336L49.123 29.008C49.0182 29.0693 48.9465 29.1253 48.9078 29.1707C48.8665 29.2187 48.8416 29.272 48.8334 29.3333C48.8279 29.3733 48.8416 29.4213 48.8692 29.4747C48.9134 29.56 48.9796 29.6053 49.0596 29.608C49.1423 29.6133 49.2554 29.5733 49.3989 29.488L50.8526 28.64V28.6373Z" fill="#0AA550"/>
  <path d="M51.6001 30.12L52.4773 32.2667L51.9449 32.5013L51.396 31.1573L51.0015 31.3333L51.5119 32.5787L51.0043 32.8053L50.494 31.5573L50.003 31.776L50.5685 33.16L50.0057 33.4107L49.112 31.2267L51.6001 30.1227V30.12Z" fill="#0AA550"/>
  <path d="M52.6677 32.8213L53.3656 35.3653L52.7228 35.5573L52.4884 34.704L50.5298 35.288L50.3009 34.4507L52.2594 33.8667L52.0249 33.0133L52.6677 32.8213Z" fill="#0AA550"/>
  <path d="M52.1242 35.9867C52.5601 35.9147 52.9187 35.9867 53.2 36.2C53.4814 36.4133 53.6552 36.7467 53.7242 37.1973C53.7931 37.6613 53.7269 38.0373 53.5255 38.3253C53.3242 38.6133 53.0097 38.7947 52.5794 38.864C52.2677 38.9147 52.0029 38.9013 51.7877 38.824C51.5725 38.7467 51.3932 38.6133 51.2498 38.424C51.1064 38.2347 51.0126 37.9867 50.9657 37.6773C50.9188 37.3627 50.9271 37.096 50.9933 36.8747C51.0595 36.6533 51.1864 36.4613 51.3739 36.3013C51.5615 36.1387 51.8125 36.032 52.1242 35.9813V35.9867ZM52.2484 36.848C51.978 36.8933 51.7932 36.976 51.6912 37.0987C51.5891 37.2213 51.5505 37.3733 51.5781 37.5547C51.6056 37.7387 51.6856 37.8747 51.8153 37.9547C51.9449 38.0373 52.1601 38.0533 52.4608 38.0053C52.7118 37.9653 52.8883 37.88 52.9876 37.7573C53.0869 37.632 53.1228 37.48 53.098 37.2987C53.0732 37.1253 52.9932 36.9947 52.858 36.9093C52.7256 36.824 52.5215 36.8027 52.2484 36.848Z" fill="#0AA550"/>
  <path d="M53.9972 40.8293L53.931 43.1627L53.3545 43.144L53.3959 41.6853L52.9656 41.672L52.9269 43.0267L52.3753 43.0107L52.4139 41.656L51.8815 41.64L51.8401 43.1413L51.2277 43.1227L51.2967 40.7493L54 40.8347L53.9972 40.8293Z" fill="#0AA550"/>
  <path d="M52.0939 43.4907L52.0249 44.3173C51.8953 44.3173 51.7932 44.336 51.716 44.3813C51.5946 44.4533 51.5229 44.5707 51.4981 44.736C51.4815 44.8587 51.4953 44.9573 51.5394 45.032C51.5863 45.1067 51.6443 45.152 51.7187 45.1627C51.7877 45.1733 51.8539 45.152 51.9174 45.096C51.9808 45.04 52.0553 44.9013 52.1353 44.68C52.2704 44.3147 52.4194 44.0613 52.5766 43.9227C52.7339 43.7813 52.9187 43.728 53.1283 43.76C53.2662 43.7813 53.3904 43.8427 53.5007 43.9467C53.6111 44.048 53.6883 44.1893 53.7352 44.3653C53.7821 44.544 53.7821 44.776 53.7407 45.0667C53.6883 45.4213 53.5862 45.6853 53.4318 45.8507C53.2773 46.016 53.0594 46.096 52.778 46.088L52.8497 45.2693C52.9738 45.2667 53.0676 45.2347 53.1311 45.1733C53.1945 45.112 53.2359 45.0213 53.2552 44.8987C53.269 44.7973 53.2607 44.72 53.2276 44.664C53.1945 44.608 53.1476 44.5733 53.0897 44.5653C53.0483 44.5573 53.0069 44.5733 52.9656 44.6107C52.9242 44.6453 52.8773 44.736 52.8249 44.8853C52.6925 45.2507 52.5739 45.5067 52.4718 45.656C52.3697 45.8053 52.2539 45.9093 52.1242 45.9653C51.9946 46.0213 51.8594 46.0373 51.7132 46.0133C51.5422 45.9867 51.3905 45.912 51.2608 45.7893C51.1312 45.6667 51.0402 45.512 50.9905 45.3227C50.9408 45.1333 50.9353 44.904 50.9739 44.6347C51.0429 44.16 51.1781 43.8453 51.3794 43.6907C51.5808 43.536 51.818 43.4667 52.0911 43.4853L52.0939 43.4907Z" fill="#0AA550"/>
  <path d="M53.3711 46.9787L53.0014 48.3733C52.9214 48.6773 52.7918 48.8853 52.6125 48.9973C52.4332 49.1093 52.2153 49.128 51.9615 49.0533C51.6994 48.9787 51.5146 48.8373 51.4098 48.6293C51.305 48.4213 51.2967 48.1493 51.3877 47.8107L51.5091 47.352L50.5409 47.0747L50.7643 46.232L53.3711 46.9813V46.9787ZM52.036 47.5013L51.9808 47.7067C51.9394 47.8693 51.9339 47.9893 51.9725 48.072C52.0084 48.152 52.0691 48.2053 52.1546 48.2293C52.2373 48.2533 52.3118 48.2427 52.3863 48.2027C52.458 48.1627 52.5159 48.064 52.5573 47.9067L52.6208 47.6667L52.0387 47.5013H52.036Z" fill="#0AA550"/>
  <path d="M52.538 49.9467L51.6912 52.1067L51.156 51.88L51.6856 50.528L51.2884 50.36L50.7974 51.6133L50.2871 51.3973L50.7781 50.1413L50.2843 49.9307L49.7381 51.3227L49.1699 51.0827L50.0305 48.8827L52.5352 49.9467H52.538Z" fill="#0AA550"/>
  <path d="M49.0044 51.4427L51.3629 52.8213L50.6816 54.088C50.5547 54.3227 50.4388 54.4907 50.334 54.592C50.2292 54.6933 50.1023 54.752 49.9588 54.768C49.8126 54.784 49.6664 54.7467 49.5147 54.6587C49.3851 54.5813 49.2858 54.488 49.2223 54.3733C49.1589 54.2587 49.1258 54.1333 49.1203 53.9973C49.1203 53.9093 49.134 53.8027 49.1699 53.6773C49.0927 53.752 49.0265 53.8 48.9768 53.824C48.9437 53.84 48.8803 53.856 48.7865 53.872C48.6954 53.888 48.6265 53.896 48.5823 53.8933L47.6996 53.8613L48.1603 53.0027L49.1009 53.0187C49.2223 53.0213 49.3078 53.0107 49.3575 52.9867C49.4237 52.952 49.4761 52.9013 49.512 52.832L49.5478 52.7653L48.5906 52.2053L49.0016 51.4427H49.0044ZM49.9974 53.024L49.8264 53.344C49.8071 53.3787 49.7823 53.4533 49.7492 53.5653C49.7326 53.6213 49.7354 53.6773 49.7575 53.7307C49.7795 53.7867 49.8181 53.8293 49.8678 53.8587C49.945 53.904 50.0168 53.912 50.083 53.8853C50.1519 53.8587 50.2209 53.776 50.2954 53.6373L50.4747 53.304L49.9947 53.024H49.9974Z" fill="#0AA550"/>
  <path d="M46.9548 55.68L47.5203 54.8853L47.2417 54.4987L47.7493 53.784L49.3133 56.3147L48.7699 57.0773L45.9921 56.2453L46.5135 55.512L46.9521 55.6773L46.9548 55.68ZM47.5258 55.8987L48.483 56.2533L47.8789 55.4027L47.5258 55.8987Z" fill="#0AA550"/>
  <path d="M47.7989 58.3547L47.2528 58.936L45.4708 58.608L46.5411 59.696L45.9921 60.2827L44.0557 58.3147L44.6046 57.728L46.3756 58.0533L45.3136 56.9733L45.8625 56.3867L47.7989 58.3547Z" fill="#0AA550"/>
  <path d="M42.9026 58.8853L42.9937 59.0987C42.9192 59.1973 42.8447 59.2773 42.7647 59.3413C42.5992 59.4773 42.464 59.5413 42.3565 59.5333C42.2489 59.5253 42.1661 59.4827 42.1054 59.4027C42.0696 59.3547 42.0447 59.2933 42.0365 59.2187C42.0254 59.144 42.0475 59.0613 42.0972 58.9707C42.1468 58.88 42.2323 58.784 42.3565 58.6853C42.4668 58.5947 42.6075 58.5013 42.7757 58.408L42.9164 58.5947C42.8006 58.656 42.6847 58.7333 42.5716 58.8267C42.4889 58.8933 42.442 58.952 42.4282 59C42.4171 59.048 42.4254 59.0907 42.453 59.128C42.4751 59.1573 42.5054 59.1733 42.5468 59.1733C42.5882 59.1733 42.6323 59.1547 42.6847 59.112C42.7537 59.056 42.8282 58.9813 42.9082 58.888L42.9026 58.8853ZM42.9661 60.7013L42.2516 60.9893C42.1634 60.7893 42.1192 60.6 42.1165 60.4187C42.1165 60.2373 42.1551 60.0693 42.2351 59.9093C42.3151 59.752 42.4502 59.5947 42.6406 59.44C42.8723 59.2507 43.0875 59.1333 43.2861 59.0827C43.4847 59.032 43.7054 59.0533 43.9426 59.144C44.1798 59.2347 44.4032 59.416 44.6101 59.6907C44.886 60.0587 45.0046 60.416 44.9632 60.7653C44.9246 61.1147 44.7315 61.4293 44.3895 61.7093C44.1219 61.928 43.8681 62.0427 43.6309 62.056C43.3936 62.0667 43.1481 61.9867 42.8971 61.8133L43.3771 61.2053C43.4488 61.256 43.5067 61.288 43.5536 61.3013C43.6309 61.3227 43.7054 61.328 43.7798 61.312C43.8543 61.296 43.926 61.2613 43.9895 61.208C44.1384 61.0853 44.2046 60.9307 44.1908 60.7413C44.1826 60.6 44.1026 60.4293 43.9536 60.232C43.7688 59.9867 43.606 59.848 43.4654 59.8133C43.3247 59.7813 43.1895 59.816 43.0599 59.9227C42.933 60.024 42.8668 60.1387 42.8585 60.2667C42.8502 60.392 42.8833 60.5387 42.9606 60.7013H42.9661Z" fill="#0AA550"/>
  <path d="M40.2379 61.7253L41.0545 61.2213L40.9414 60.752L41.6751 60.2987L42.1799 63.264L41.3965 63.7493L39.1428 61.864L39.8959 61.4L40.2407 61.728L40.2379 61.7253ZM40.6848 62.1573L41.4379 62.8693L41.1951 61.84L40.6848 62.1547V62.1573Z" fill="#0AA550"/>
</svg>