<svg width="72" height="72" viewBox="0 0 72 72" fill="none" xmlns="http://www.w3.org/2000/svg">
<rect width="72" height="72" rx="20" fill="white"/>
<path d="M36.4727 52.0401L20.8484 35.7445C19.4753 34.3724 18.5689 32.6028 18.258 30.6866C17.9471 28.7705 18.2473 26.8051 19.1162 25.0692C19.7714 23.7592 20.7284 22.6236 21.9085 21.7561C23.0886 20.8885 24.458 20.3138 25.9038 20.0792C27.3495 19.8446 28.8304 19.9569 30.2242 20.4069C31.6181 20.8568 32.8851 21.6316 33.9208 22.6672L36.4727 25.2175L39.0246 22.6672C40.0604 21.6316 41.3274 20.8568 42.7212 20.4069C44.1151 19.9569 45.5959 19.8446 47.0417 20.0792C48.4875 20.3138 49.8568 20.8885 51.0369 21.7561C52.217 22.6236 53.1741 23.7592 53.8292 25.0692C54.6969 26.8044 54.9967 28.7686 54.6861 30.6837C54.3755 32.5987 53.4703 34.3675 52.0986 35.7396L36.4727 52.0401Z" fill="#F47701"/>
</svg>
